<svg xmlns="http://www.w3.org/2000/svg" xmlns:xlink="http://www.w3.org/1999/xlink" version="1.1" x="0px" y="0px" viewBox="0 0 100 125" enable-background="new 0 0 100 100" xml:space="preserve"><g fill="white"><g><path d="M35,49c-0.552,0-1-0.448-1-1V35c0-0.552,0.448-1,1-1h30c0.553,0,1,0.448,1,1v8c0,0.552-0.447,1-1,1s-1-0.448-1-1v-7H36v12    C36,48.552,35.552,49,35,49z"/></g><g><path d="M65,66.006H35c-0.552,0-1-0.447-1-1v-8c0-0.553,0.448-1,1-1s1,0.447,1,1v7h28v-12c0-0.553,0.447-1,1-1s1,0.447,1,1v13    C66,65.559,65.553,66.006,65,66.006z"/></g><g><path d="M35,49.021c-0.255,0-0.511-0.097-0.706-0.292l-6.021-6c-0.391-0.39-0.392-1.023-0.002-1.415    c0.389-0.392,1.022-0.392,1.415-0.002l6.021,6c0.391,0.39,0.392,1.023,0.002,1.415C35.513,48.923,35.256,49.021,35,49.021z"/></g><g><path d="M35,49.021c-0.256,0-0.513-0.098-0.708-0.294c-0.39-0.392-0.389-1.024,0.002-1.415l6.021-6    c0.391-0.389,1.025-0.388,1.415,0.002c0.39,0.392,0.389,1.024-0.002,1.415l-6.021,6C35.511,48.924,35.255,49.021,35,49.021z"/></g><g><path d="M71.021,59.006c-0.255,0-0.511-0.098-0.706-0.292l-6.021-6c-0.391-0.39-0.393-1.022-0.002-1.414    c0.39-0.39,1.022-0.392,1.414-0.002l6.021,6c0.391,0.39,0.393,1.022,0.002,1.414C71.533,58.908,71.277,59.006,71.021,59.006z"/></g><g><path d="M58.979,59.006c-0.257,0-0.513-0.098-0.708-0.294c-0.391-0.392-0.389-1.024,0.002-1.414l6.021-6    c0.392-0.391,1.024-0.389,1.414,0.002c0.391,0.392,0.389,1.024-0.002,1.414l-6.021,6C59.49,58.908,59.234,59.006,58.979,59.006z"/></g></g></svg>